<svg id="Layer_1" data-name="Layer 1" xmlns="http://www.w3.org/2000/svg" viewBox="0 0 240.13 240.33"><defs><style>.cls-1{fill:#57cc02;}</style></defs><path class="cls-1" d="M175.83,22s22.32-7.92,24.24,15.12c0,0-2.16,28.56,24.24,34.8,0,0,26.88,5.52,10.56,28.08,0,0-22.8,18,1.2,43.44,0,0,16.32,18-16.8,27.84,0,0-23.76,5-19.44,34.32,0,0,1.44,20.16-29.76,11.52,0,0-20.88-12.72-37.92,17,0,0-13.2,18.24-32.4-8.16,0,0-8.64-19.92-36-7.92,0,0-23,9.36-24.48-16.8,0,0,5-29.28-26.88-34.32,0,0-23.52-8.88-5.76-29.76,0,0,19-18.48-3.36-41.52,0,0-12-16.56,14.88-24.72,0,0,25.68-4.32,22.32-33.12,0,0-4.56-25.68,29.76-14.88,0,0,19.92,12.48,36-14.16,0,0,13.44-22.08,31.68,3.6C137.91,12.43,148,36,175.83,22Z" transform="translate(0 0.04)"/></svg>