<svg width="31" height="31" viewBox="0 0 31 31" fill="none" xmlns="http://www.w3.org/2000/svg">
<g clip-path="url(#clip0)">
<path d="M28.5126 20.3479C26.6146 20.3479 24.7511 20.0511 22.9851 19.4675C22.1198 19.1724 21.056 19.4431 20.5279 19.9856L17.0423 22.6168C12.9999 20.459 10.5099 17.9698 8.38154 13.9578L10.9354 10.563C11.5989 9.90038 11.8369 8.93244 11.5518 8.02424C10.9657 6.249 10.668 4.38634 10.668 2.48759C10.668 1.11592 9.55212 0 8.18053 0H2.48751C1.11592 0 0 1.11592 0 2.48751C0 18.2095 12.7906 31 28.5126 31C29.8842 31 31.0001 29.8841 31.0001 28.5125V22.8354C31 21.4639 29.8841 20.3479 28.5126 20.3479Z" fill="white"/>
</g>
<defs>
<clipPath id="clip0">
<rect width="31" height="31" fill="white"/>
</clipPath>
</defs>
</svg>
