<svg width="13" height="13" viewBox="0 0 13 13" fill="none" xmlns="http://www.w3.org/2000/svg">
<path d="M5.41763 0.784729H7.59032V1.15031H8.37495V0.733551C8.37505 0.329086 8.04616 0 7.64189 0H5.36606C4.96179 0 4.6329 0.329086 4.6329 0.733551V1.15031H5.41763V0.784729Z" fill="#AEAEAE"/>
<path d="M10.187 4.25928H2.82092C2.61908 4.25928 2.46019 4.43146 2.47646 4.6327L3.09228 12.2475C3.1266 12.6726 3.48117 13 3.90716 13H9.10063C9.52662 13 9.8812 12.6726 9.91551 12.2474L10.5313 4.6327C10.5477 4.43146 10.3888 4.25928 10.187 4.25928V4.25928ZM4.60451 12.1878C4.59628 12.1883 4.58805 12.1886 4.57991 12.1886C4.37421 12.1886 4.20153 12.0284 4.18874 11.8203L3.80282 5.56898C3.78953 5.35266 3.95407 5.1665 4.17029 5.15321C4.38581 5.14011 4.57277 5.30426 4.58606 5.52068L4.97188 11.772C4.98527 11.9883 4.82073 12.1744 4.60451 12.1878V12.1878ZM6.90067 11.7962C6.90067 12.0128 6.72502 12.1885 6.50831 12.1885C6.2916 12.1885 6.11595 12.0128 6.11595 11.7962V5.54478C6.11595 5.32806 6.2916 5.15241 6.50831 5.15241C6.72492 5.15241 6.90067 5.32806 6.90067 5.54478V11.7962ZM9.20507 5.56789L8.83661 11.8192C8.82441 12.0277 8.65144 12.1885 8.44534 12.1885C8.4376 12.1885 8.42977 12.1883 8.42193 12.1879C8.20561 12.1751 8.04057 11.9894 8.05337 11.7731L8.42173 5.52167C8.43443 5.30535 8.6195 5.14031 8.83641 5.15311C9.05273 5.1658 9.21777 5.35157 9.20507 5.56789V5.56789Z" fill="#AEAEAE"/>
<path d="M11.5438 3.04848L11.2861 2.27605C11.2182 2.07243 11.0276 1.93506 10.8128 1.93506H2.19499C1.98036 1.93506 1.78963 2.07243 1.72179 2.27605L1.46411 3.04848C1.41442 3.19745 1.47909 3.3494 1.59979 3.42517C1.64899 3.45602 1.70721 3.47456 1.77118 3.47456H11.2367C11.3007 3.47456 11.359 3.45602 11.4081 3.42507C11.5288 3.3493 11.5935 3.19735 11.5438 3.04848Z" fill="#AEAEAE"/>
</svg>
