<svg width="29" height="29" viewBox="0 0 29 29" fill="none" xmlns="http://www.w3.org/2000/svg">
<g clip-path="url(#clip0)">
<path d="M28.5695 10.4822C28.1865 10.0018 27.612 9.72614 26.9932 9.72614H21.4082L18.3797 2.79146C18.1919 2.3615 17.6911 2.16501 17.2611 2.35289C16.831 2.54065 16.6347 3.04152 16.8225 3.47154L19.554 9.72619H9.44602L12.1775 3.47154C12.3653 3.04152 12.169 2.54071 11.7389 2.35289C11.309 2.16501 10.8081 2.36138 10.6203 2.79146L7.59183 9.72619H2.00684C1.38798 9.72619 0.813476 10.0017 0.430529 10.4822C0.0546051 10.9539 -0.0841078 11.5603 0.0499606 12.1461L3.03249 25.1734C3.24075 26.0831 4.04545 26.7184 4.98936 26.7184H24.0106C24.9546 26.7184 25.7593 26.0831 25.9675 25.1734L28.95 12.1461C29.0841 11.5603 28.9454 10.9539 28.5695 10.4822ZM24.0106 25.0191H4.98936C4.8451 25.0191 4.71873 24.9245 4.68888 24.7941L1.70636 11.7669C1.68297 11.6647 1.72222 11.5877 1.75937 11.5412C1.79381 11.498 1.87181 11.4254 2.00684 11.4254H6.84978L6.62724 11.935C6.43948 12.365 6.63579 12.8658 7.06581 13.0537C7.17648 13.102 7.2918 13.1249 7.40537 13.1249C7.73286 13.1249 8.04495 12.9344 8.1844 12.6151L8.70397 11.4255H20.2962L20.8157 12.6151C20.9552 12.9345 21.2673 13.1249 21.5948 13.1249C21.7083 13.1249 21.8236 13.102 21.9343 13.0537C22.3643 12.8659 22.5607 12.365 22.3729 11.935L22.1503 11.4254H26.9933C27.1283 11.4254 27.2063 11.498 27.2407 11.5412C27.2778 11.5878 27.3172 11.6647 27.2938 11.7668L24.3112 24.7942C24.2813 24.9245 24.1549 25.0191 24.0106 25.0191Z" fill="white"/>
<path d="M9.40234 15.1071C8.93313 15.1071 8.55273 15.4875 8.55273 15.9567V22.1871C8.55273 22.6563 8.93313 23.0367 9.40234 23.0367C9.87155 23.0367 10.252 22.6563 10.252 22.1871V15.9567C10.252 15.4875 9.87161 15.1071 9.40234 15.1071Z" fill="white"/>
<path d="M14.5 15.1071C14.0308 15.1071 13.6504 15.4875 13.6504 15.9567V22.1871C13.6504 22.6563 14.0308 23.0367 14.5 23.0367C14.9692 23.0367 15.3496 22.6563 15.3496 22.1871V15.9567C15.3496 15.4875 14.9692 15.1071 14.5 15.1071Z" fill="white"/>
<path d="M19.5977 15.1071C19.1284 15.1071 18.748 15.4875 18.748 15.9567V22.1871C18.748 22.6563 19.1284 23.0367 19.5977 23.0367C20.0669 23.0367 20.4473 22.6563 20.4473 22.1871V15.9567C20.4472 15.4875 20.0669 15.1071 19.5977 15.1071Z" fill="white"/>
</g>
<defs>
<clipPath id="clip0">
<rect width="29" height="29" fill="white"/>
</clipPath>
</defs>
</svg>
