<svg width="19" height="19" viewBox="0 0 19 19" fill="none" xmlns="http://www.w3.org/2000/svg">
<g clip-path="url(#clip0)">
<path d="M18.7338 1.68712L17.4214 0.390242C17.0662 0.035102 16.4795 0.035102 16.1089 0.390242L9.56197 6.93702L2.89166 0.266715C2.53637 -0.0885795 1.94962 -0.0885795 1.57919 0.266715L0.266715 1.57919C-0.0885795 1.93433 -0.0885795 2.52108 0.266715 2.89166L6.92173 9.54668L0.390242 16.1091C0.035102 16.4642 0.035102 17.0509 0.390242 17.4215L1.70272 18.734C2.05786 19.0891 2.64461 19.0891 3.01519 18.734L9.56197 12.1871L16.1089 18.734C16.464 19.0891 17.0508 19.0891 17.4214 18.734L18.7338 17.4215C19.089 17.0664 19.089 16.4796 18.7338 16.1091L12.1715 9.56212L18.7184 3.01535C19.089 2.64446 19.089 2.0577 18.7338 1.68712Z" fill="white"/>
</g>
<defs>
<clipPath id="clip0">
<rect width="19" height="19" fill="white"/>
</clipPath>
</defs>
</svg>
