<svg width="125" height="91" viewBox="0 0 125 91" fill="none" xmlns="http://www.w3.org/2000/svg">
<rect y="46.0171" width="125" height="44" rx="5" fill="#E90026"/>
<path d="M22.919 71.6711C24.2223 71.6711 25.2877 71.1554 26.115 70.1241L27.815 71.8751C26.4663 73.3938 24.874 74.1531 23.038 74.1531C21.2133 74.1531 19.706 73.5751 18.516 72.4191C17.3373 71.2631 16.748 69.8068 16.748 68.0501C16.748 66.2821 17.3487 64.8088 18.55 63.6301C19.7627 62.4514 21.2417 61.8621 22.987 61.8621C24.9363 61.8621 26.5683 62.6044 27.883 64.0891L26.234 65.9591C25.3953 64.9164 24.3527 64.3951 23.106 64.3951C22.1087 64.3951 21.253 64.7238 20.539 65.3811C19.8363 66.0271 19.485 66.9054 19.485 68.0161C19.485 69.1154 19.8193 69.9994 20.488 70.6681C21.1567 71.3368 21.967 71.6711 22.919 71.6711ZM32.2082 74.0171H29.6582V61.4031H32.2082V74.0171ZM36.662 69.4441C36.662 70.1921 36.8717 70.8041 37.291 71.2801C37.7217 71.7448 38.2657 71.9771 38.923 71.9771C39.5917 71.9771 40.1357 71.7448 40.555 71.2801C40.9857 70.8041 41.201 70.1921 41.201 69.4441C41.201 68.6961 40.9857 68.0841 40.555 67.6081C40.1357 67.1321 39.5917 66.8941 38.923 66.8941C38.2657 66.8941 37.7217 67.1321 37.291 67.6081C36.8717 68.0841 36.662 68.6961 36.662 69.4441ZM43.768 69.4441C43.768 70.7701 43.309 71.8864 42.391 72.7931C41.473 73.6998 40.317 74.1531 38.923 74.1531C37.5404 74.1531 36.39 73.6998 35.472 72.7931C34.554 71.8864 34.095 70.7701 34.095 69.4441C34.095 68.1181 34.554 67.0018 35.472 66.0951C36.39 65.1771 37.5404 64.7181 38.923 64.7181C40.317 64.7181 41.473 65.1771 42.391 66.0951C43.309 67.0018 43.768 68.1181 43.768 69.4441ZM52.4641 71.1781C52.4641 72.0734 52.1297 72.7931 51.4611 73.3371C50.8037 73.8811 49.9651 74.1531 48.9451 74.1531C48.2651 74.1531 47.5567 74.0341 46.8201 73.7961C46.0834 73.5468 45.4204 73.1841 44.8311 72.7081L45.9531 71.1101C46.9051 71.8468 47.9194 72.2151 48.9961 72.2151C49.3247 72.2151 49.5854 72.1528 49.7781 72.0281C49.9707 71.8921 50.0671 71.7164 50.0671 71.5011C50.0671 71.2858 49.9311 71.0874 49.6591 70.9061C49.3984 70.7248 49.0131 70.5548 48.5031 70.3961C48.0044 70.2374 47.6191 70.1014 47.3471 69.9881C47.0864 69.8748 46.7861 69.7104 46.4461 69.4951C45.7547 69.0644 45.4091 68.4298 45.4091 67.5911C45.4091 66.7411 45.7491 66.0498 46.4291 65.5171C47.1091 64.9844 47.9874 64.7181 49.0641 64.7181C50.1407 64.7181 51.2174 65.0808 52.2941 65.8061L51.3421 67.5061C50.5487 66.9621 49.7554 66.6901 48.9621 66.6901C48.1801 66.6901 47.7891 66.9054 47.7891 67.3361C47.7891 67.5741 47.9137 67.7611 48.1631 67.8971C48.4124 68.0331 48.8261 68.1918 49.4041 68.3731C49.9821 68.5544 50.3901 68.6961 50.6281 68.7981C50.8774 68.8888 51.1721 69.0361 51.5121 69.2401C52.1467 69.6254 52.4641 70.2714 52.4641 71.1781ZM62.3331 72.6911C61.3018 73.6658 60.0891 74.1531 58.6951 74.1531C57.3124 74.1531 56.1678 73.7281 55.2611 72.8781C54.3544 72.0168 53.9011 70.8664 53.9011 69.4271C53.9011 67.9878 54.3601 66.8431 55.2781 65.9931C56.2074 65.1431 57.3011 64.7181 58.5591 64.7181C59.8171 64.7181 60.8824 65.0978 61.7551 65.8571C62.6391 66.6164 63.0811 67.6591 63.0811 68.9851V70.3451H56.4171C56.4964 70.8438 56.7571 71.2518 57.1991 71.5691C57.6411 71.8864 58.1398 72.0451 58.6951 72.0451C59.5904 72.0451 60.3271 71.7448 60.9051 71.1441L62.3331 72.6911ZM60.4971 68.5261C60.4404 67.9821 60.2364 67.5628 59.8851 67.2681C59.5338 66.9734 59.1031 66.8261 58.5931 66.8261C58.0944 66.8261 57.6354 66.9791 57.2161 67.2851C56.7968 67.5911 56.5531 68.0048 56.4851 68.5261H60.4971ZM77.9703 62.1341H80.6223V74.0171H77.9703L72.3093 66.5711V74.0171H69.6573V62.1341H72.1393L77.9703 69.7841V62.1341ZM85.3378 69.4441C85.3378 70.1921 85.5475 70.8041 85.9668 71.2801C86.3975 71.7448 86.9415 71.9771 87.5988 71.9771C88.2675 71.9771 88.8115 71.7448 89.2308 71.2801C89.6615 70.8041 89.8768 70.1921 89.8768 69.4441C89.8768 68.6961 89.6615 68.0841 89.2308 67.6081C88.8115 67.1321 88.2675 66.8941 87.5988 66.8941C86.9415 66.8941 86.3975 67.1321 85.9668 67.6081C85.5475 68.0841 85.3378 68.6961 85.3378 69.4441ZM92.4438 69.4441C92.4438 70.7701 91.9848 71.8864 91.0668 72.7931C90.1488 73.6998 88.9928 74.1531 87.5988 74.1531C86.2162 74.1531 85.0658 73.6998 84.1478 72.7931C83.2298 71.8864 82.7708 70.7701 82.7708 69.4441C82.7708 68.1181 83.2298 67.0018 84.1478 66.0951C85.0658 65.1771 86.2162 64.7181 87.5988 64.7181C88.9928 64.7181 90.1488 65.1771 91.0668 66.0951C91.9848 67.0018 92.4438 68.1181 92.4438 69.4441ZM98.9318 74.0171H96.2968L93.1858 64.8711H95.8208L97.6058 70.3961L99.3908 64.8711H101.856L103.641 70.3961L105.426 64.8711H108.078L104.967 74.0171H102.315L100.632 69.0361L98.9318 74.0171Z" fill="white"/>
<g filter="url(#filter0_i)">
<circle cx="9" cy="55.0171" r="4" fill="white"/>
</g>
<circle cx="9" cy="55.0171" r="3.75" stroke="#790014" stroke-width="0.5"/>
<g filter="url(#filter1_i)">
<circle cx="116" cy="55.0171" r="4" fill="white"/>
</g>
<circle cx="116" cy="55.0171" r="3.75" stroke="#790014" stroke-width="0.5"/>
<line x1="8.64645" y1="54.6464" x2="62.6464" y2="0.646449" stroke="#E90026"/>
<line x1="62.3379" y1="0.646447" x2="116.338" y2="54.6464" stroke="#E90026"/>
<defs>
<filter id="filter0_i" x="5" y="51.0171" width="8" height="8" filterUnits="userSpaceOnUse" color-interpolation-filters="sRGB">
<feFlood flood-opacity="0" result="BackgroundImageFix"/>
<feBlend mode="normal" in="SourceGraphic" in2="BackgroundImageFix" result="shape"/>
<feColorMatrix in="SourceAlpha" type="matrix" values="0 0 0 0 0 0 0 0 0 0 0 0 0 0 0 0 0 0 127 0" result="hardAlpha"/>
<feOffset/>
<feGaussianBlur stdDeviation="2"/>
<feComposite in2="hardAlpha" operator="arithmetic" k2="-1" k3="1"/>
<feColorMatrix type="matrix" values="0 0 0 0 0 0 0 0 0 0 0 0 0 0 0 0 0 0 0.25 0"/>
<feBlend mode="normal" in2="shape" result="effect1_innerShadow"/>
</filter>
<filter id="filter1_i" x="112" y="51.0171" width="8" height="8" filterUnits="userSpaceOnUse" color-interpolation-filters="sRGB">
<feFlood flood-opacity="0" result="BackgroundImageFix"/>
<feBlend mode="normal" in="SourceGraphic" in2="BackgroundImageFix" result="shape"/>
<feColorMatrix in="SourceAlpha" type="matrix" values="0 0 0 0 0 0 0 0 0 0 0 0 0 0 0 0 0 0 127 0" result="hardAlpha"/>
<feOffset/>
<feGaussianBlur stdDeviation="2"/>
<feComposite in2="hardAlpha" operator="arithmetic" k2="-1" k3="1"/>
<feColorMatrix type="matrix" values="0 0 0 0 0 0 0 0 0 0 0 0 0 0 0 0 0 0 0.25 0"/>
<feBlend mode="normal" in2="shape" result="effect1_innerShadow"/>
</filter>
</defs>
</svg>
