<svg width="12" height="12" viewBox="0 0 12 12" fill="none" xmlns="http://www.w3.org/2000/svg">
<path d="M8.17111 5.95378C8.15424 5.74024 7.9663 5.56389 7.75214 5.5606L6.33477 5.53887C6.25244 5.53762 6.16899 5.46514 6.1562 5.3838L5.84391 3.39841C5.83259 3.32649 5.76553 3.03326 5.39945 3.03326L3.63687 3.11002C3.40466 3.12011 3.2159 3.233 3.2159 3.54986C3.2159 3.54986 3.20848 7.96269 3.19945 8.1226L3.13778 9.21441C3.12954 9.36022 3.07273 9.59624 3.01373 9.7298L2.3003 11.3446C2.25321 11.4511 2.25399 11.5689 2.30244 11.6677C2.35089 11.7666 2.4435 11.8393 2.55659 11.8674L2.7941 11.9264C2.82945 11.9351 2.86645 11.9396 2.90403 11.9396C3.09577 11.9396 3.27917 11.8283 3.36043 11.6627L4.03859 10.2804C4.1135 10.1277 4.20672 9.86892 4.24644 9.70353L4.62911 8.10949L5.55516 9.52569C5.63151 9.64245 5.71224 9.86651 5.72791 10.0052L5.90694 11.5907C5.93241 11.8164 6.13796 12 6.36515 12L6.63601 11.9991C6.75221 11.9987 6.85788 11.9523 6.93353 11.8684C7.00916 11.7846 7.04454 11.6748 7.03306 11.5592L6.84608 9.67412C6.82883 9.50027 6.76639 9.23627 6.70392 9.07311L5.87413 6.90574L5.869 6.44883L7.79755 6.37745C7.90522 6.37347 8.00359 6.32737 8.07455 6.24765C8.14551 6.16797 8.17992 6.06492 8.17143 5.95739L8.17111 5.95378ZM6.36515 11.8665V11.8665V11.8665Z" fill="#57CC02"/>
<path d="M4.20031 2.61426C4.34869 2.61426 4.49541 2.58895 4.63639 2.53901C4.96547 2.42256 5.22947 2.18491 5.37977 1.86984C5.48605 1.64707 5.52614 1.40445 5.49953 1.16512L5.9375 1.11571C6.09012 1.09849 6.24504 0.976754 6.29784 0.832542L6.44454 0.431915C6.47585 0.346328 6.4676 0.259726 6.42187 0.194267C6.37729 0.130464 6.30217 0.0938632 6.21578 0.0938632C6.20577 0.0938632 6.19541 0.0943438 6.18479 0.0953582L4.91838 0.215811C4.70962 0.0782995 4.46134 0 4.20018 0C4.05185 0 3.90519 0.0252811 3.76415 0.075176C3.4351 0.191704 3.1711 0.429379 3.02077 0.744446C2.87045 1.05951 2.85184 1.41422 2.96837 1.74322C3.15287 2.26422 3.64794 2.61426 4.20031 2.61426Z" fill="#57CC02"/>
<path d="M9.73354 4.6597L9.60753 2.84855C9.59256 2.63346 9.40499 2.4585 9.18864 2.4585L6.7676 2.46271C6.65922 2.4629 6.55959 2.50591 6.48705 2.58381C6.41455 2.66168 6.37872 2.76411 6.38628 2.87226L6.51228 4.6834C6.52726 4.89849 6.71482 5.07346 6.93045 5.07346L9.35221 5.06924C9.4606 5.06906 9.56023 5.02607 9.63276 4.94818C9.70527 4.87028 9.74107 4.76782 9.73354 4.6597Z" fill="#57CC02"/>
</svg>
