<svg width="22" height="22" viewBox="0 0 22 22" fill="none" xmlns="http://www.w3.org/2000/svg">
<path d="M6.87502 13.8762C5.80732 13.8762 4.94205 14.7411 4.94205 15.8089C4.94205 16.8768 5.80732 17.7417 6.87502 17.7417C7.94311 17.7417 8.80816 16.8768 8.80816 15.8089C8.80816 14.7411 7.94311 13.8762 6.87502 13.8762ZM6.87502 16.6492C6.41088 16.6492 6.03479 16.2731 6.03479 15.8089C6.03479 15.3446 6.41088 14.9686 6.87502 14.9686C7.33922 14.9686 7.71558 15.3446 7.71558 15.8089C7.71558 16.2731 7.33922 16.6492 6.87502 16.6492Z" fill="#57CC02"/>
<path d="M17.0679 13.8762C16.0002 13.8762 15.135 14.7411 15.135 15.8089C15.135 16.8768 16.0002 17.7417 17.0679 17.7417C18.136 17.7417 19.001 16.8768 19.001 15.8089C19.001 14.7411 18.136 13.8762 17.0679 13.8762ZM17.0679 16.6492C16.6038 16.6492 16.2277 16.2731 16.2277 15.8089C16.2277 15.3446 16.6038 14.9686 17.0679 14.9686C17.5322 14.9686 17.9085 15.3446 17.9085 15.8089C17.9085 16.2731 17.5322 16.6492 17.0679 16.6492Z" fill="#57CC02"/>
<path d="M9.04963 7.93712C9.04963 8.20796 8.828 8.42954 8.55721 8.42954H1.76196C1.49112 8.42954 1.26959 8.20796 1.26959 7.93712V7.64166C1.26959 7.37087 1.49117 7.14929 1.76196 7.14929H8.55721C8.82806 7.14929 9.04963 7.37087 9.04963 7.64166V7.93712V7.93712Z" fill="#57CC02"/>
<path d="M20.8556 10.8201C20.1468 10.6359 19.7413 10.52 19.463 9.98253L18.5324 8.09834C18.2539 7.56087 17.5309 7.12106 16.9257 7.12106H15.6529C15.6529 7.12106 15.4817 7.12463 15.4817 6.95232C15.4817 6.55725 15.4817 5.37208 15.4817 5.37208C15.4817 4.75948 15.135 4.25824 14.3976 4.25824H4.02403C2.96828 4.25824 2.46704 4.75953 2.46704 5.37208V6.36239C2.46704 6.36239 2.46704 6.65692 2.75211 6.65692C4.20337 6.65692 8.55721 6.65692 8.55721 6.65692C9.10025 6.65692 9.54206 7.09867 9.54206 7.64172V7.93717C9.54206 8.48022 9.10025 8.92197 8.55721 8.92197H2.75211C2.75211 8.92197 2.46704 8.89828 2.46704 9.20601C2.46704 9.35885 2.46704 9.46145 2.46704 9.54657C2.46704 9.81742 2.83827 9.81726 2.83827 9.81726H6.74597C7.28902 9.81726 7.73082 10.2591 7.73082 10.8021V11.0975C7.73082 11.6406 7.28902 12.0823 6.74597 12.0823H2.89992C2.89992 12.0823 2.46704 12.0743 2.46704 12.419C2.46704 13.0172 2.46704 14.8119 2.46704 14.8119C2.46704 15.4245 2.96828 15.9258 3.58088 15.9258C3.58088 15.9258 4.04231 15.9258 4.19612 15.9258C4.33566 15.9258 4.35621 15.848 4.35621 15.809C4.35621 14.4202 5.48622 13.2905 6.87507 13.2905C8.26402 13.2905 9.39398 14.4203 9.39398 15.809C9.39398 15.8482 9.38284 15.9258 9.48954 15.9258C10.7091 15.9258 14.4547 15.9258 14.4547 15.9258C14.5531 15.9258 14.5491 15.8428 14.5491 15.809C14.5491 14.4202 15.6791 13.2905 17.068 13.2905C18.4569 13.2905 19.5868 14.4203 19.5868 15.809C19.5868 15.8482 19.5858 15.9258 19.6474 15.9258C20.2067 15.9258 20.8992 15.9258 20.8992 15.9258C21.5047 15.9258 21.9999 15.4305 21.9999 14.8251V12.7341C22 10.9731 21.444 10.9731 20.8556 10.8201ZM18.7611 10.7222C18.7611 10.7222 16.4237 10.7222 15.6282 10.7222C15.4988 10.7222 15.4816 10.5962 15.4816 10.5962V7.98639C15.4816 7.98639 15.4743 7.88617 15.6405 7.88617C15.864 7.88617 16.5344 7.88617 16.5344 7.88617C17.073 7.88617 17.7164 8.27752 17.9641 8.75577L18.7922 10.4323C18.8271 10.4998 18.8643 10.5598 18.9042 10.6135C18.9337 10.6528 18.8843 10.7222 18.7611 10.7222Z" fill="#57CC02"/>
<path d="M7.23835 11.0975C7.23835 11.3684 7.01677 11.5899 6.74598 11.5899H0.492371C0.221524 11.5899 0 11.3684 0 11.0975V10.8021C0 10.5313 0.221578 10.3097 0.492371 10.3097H6.74598C7.01682 10.3097 7.23835 10.5313 7.23835 10.8021V11.0975Z" fill="#57CC02"/>
</svg>
