<svg width="29" height="29" viewBox="0 0 29 29" fill="none" xmlns="http://www.w3.org/2000/svg">
<g clip-path="url(#clip0)">
<path d="M28.0156 13.3961L26.0409 12.5415L24.364 9.27828C23.9108 8.3848 22.9914 7.82798 21.9878 7.83446H19.1002V7.01866C19.1002 5.54246 17.9218 4.3382 16.4456 4.3382H2.64185C1.16565 4.3382 0.000233309 5.54894 0.000233309 7.01866V19.5146C-0.0127158 20.4145 0.70596 21.1526 1.60592 21.1656C1.6124 21.1656 1.61887 21.1656 1.63182 21.1656H1.97497C1.97497 21.2303 1.9685 21.2562 1.9685 21.2951C1.96202 23.1468 3.45765 24.6554 5.30937 24.6618C7.16109 24.6683 8.66967 23.1727 8.67614 21.321C8.67614 21.308 8.67614 21.3015 8.67614 21.2886C8.67614 21.2433 8.67614 21.2238 8.66967 21.1591H19.8253C19.8253 21.2238 19.8253 21.2497 19.8253 21.2886C19.8189 23.1403 21.3145 24.6489 23.1662 24.6554C25.0179 24.6618 26.5265 23.1662 26.533 21.3145C26.533 21.3015 26.533 21.2951 26.533 21.2821C26.533 21.2368 26.533 21.2174 26.533 21.1526H27.3682C28.2681 21.1526 28.9998 20.421 28.9998 19.521C28.9998 19.5146 28.9998 19.5081 28.9998 19.4951V14.8982C29.0127 14.2637 28.6242 13.6616 28.0156 13.3961ZM5.32879 23.3734C4.18927 23.3734 3.26988 22.454 3.26988 21.3145C3.26988 20.175 4.18927 19.2556 5.32879 19.2556C6.46832 19.2556 7.3877 20.175 7.3877 21.3145C7.3877 22.4475 6.46184 23.3734 5.32879 23.3734ZM17.8053 19.8836H8.36536C7.8215 18.6988 6.63018 17.9412 5.32879 17.9477C4.02093 17.9412 2.83609 18.6923 2.29223 19.8836H1.63182C1.43111 19.8836 1.29514 19.7282 1.29514 19.5275V16.1931H17.8053V19.8836ZM17.8053 7.02514V14.8982H1.29514V7.02514C1.29514 6.26761 1.88433 5.63958 2.64185 5.63958H16.4456C17.2031 5.64606 17.8117 6.26761 17.8053 7.01866V7.02514ZM19.1002 9.13584H21.9878C22.4993 9.12937 22.9784 9.40778 23.218 9.86747L24.5129 12.3731H19.1002V9.13584V9.13584ZM23.1856 23.3734C22.0461 23.3734 21.1267 22.454 21.1267 21.3145C21.1267 20.175 22.0461 19.2556 23.1856 19.2556C24.3251 19.2556 25.2445 20.175 25.2445 21.3145C25.2445 22.4475 24.3251 23.3734 23.1856 23.3734ZM27.7113 19.5275C27.7113 19.7282 27.5754 19.8836 27.3747 19.8836H26.2222C25.4388 18.2067 23.4446 17.4816 21.7677 18.265C21.0555 18.5952 20.4793 19.1714 20.1491 19.8836H19.1002V13.668H25.4452L27.5042 14.5745C27.6336 14.6392 27.7178 14.7817 27.7113 14.9241V19.5275Z" fill="#1F1E1E"/>
</g>
<defs>
<clipPath id="clip0">
<rect width="29" height="29" fill="white"/>
</clipPath>
</defs>
</svg>
