<svg width="29" height="29" viewBox="0 0 29 29" fill="none" xmlns="http://www.w3.org/2000/svg">
<path d="M26.9699 16.2523L26.2189 13.2484C26.4242 13.2048 26.5783 13.0226 26.5783 12.8044V12.32C26.5783 11.2685 25.7227 10.413 24.6712 10.413H21.2505V9.41399C21.2505 8.89652 20.8296 8.47557 20.3121 8.47557H13.9517L17.8169 6.9295C18.0497 6.83639 18.1629 6.5721 18.0698 6.33925C17.9767 6.10646 17.7126 5.99312 17.4796 6.08629L14.3148 7.35216C15.2792 6.73341 16.2333 6.05242 16.5966 5.57619C17.3037 4.64904 17.1246 3.31946 16.1975 2.6123C15.2703 1.90508 13.9407 2.08424 13.2336 3.01139C12.7169 3.68892 12.0352 5.59267 11.5939 6.9342C11.1527 5.59278 10.471 3.68892 9.95431 3.01139C9.2472 2.08424 7.91757 1.9052 6.99042 2.6123C6.06327 3.3194 5.88422 4.64898 6.59133 5.57619C6.95456 6.05248 7.90862 6.73341 8.87304 7.35216L5.7083 6.08629C5.47534 5.99301 5.21116 6.1064 5.11805 6.33925C5.02487 6.5721 5.13815 6.83639 5.371 6.9295L9.23616 8.47557H2.87576C2.35829 8.47557 1.93734 8.89652 1.93734 9.41399V17.6478C1.93734 17.8986 2.14062 18.1019 2.39142 18.1019C2.64217 18.1019 2.84551 17.8986 2.84551 17.6478V9.41399C2.84551 9.39728 2.85905 9.38374 2.87576 9.38374H20.3121C20.3288 9.38374 20.3423 9.39728 20.3423 9.41399V17.6479C20.3423 17.8987 20.5456 18.102 20.7964 18.102C21.0471 18.102 21.2505 17.8988 21.2505 17.6479V17.1332H26.6068C26.6073 17.1332 26.6077 17.1333 26.6082 17.1333C26.6087 17.1333 26.6091 17.1333 26.6097 17.1333C27.2687 17.1338 27.8283 17.5664 28.0205 18.1625H26.6085C26.3578 18.1625 26.1544 18.3658 26.1544 18.6166V19.5852C26.1544 20.3698 26.7927 21.008 27.5772 21.008H28.0918V23.0059H26.9045C26.5145 21.8797 25.4439 21.0685 24.1868 21.0685C22.9297 21.0685 21.859 21.8797 21.4691 23.0059H21.2504V19.5852C21.2504 19.3344 21.0471 19.1311 20.7963 19.1311C20.5456 19.1311 20.3423 19.3344 20.3423 19.5852V23.0058H10.9213C10.5312 21.8797 9.46068 21.0684 8.20355 21.0684C6.94641 21.0684 5.87578 21.8796 5.48581 23.0058H2.87576C2.85905 23.0058 2.84551 22.9923 2.84551 22.9756V21.9766H4.81315C5.0639 21.9766 5.26724 21.7733 5.26724 21.5225C5.26724 21.2717 5.06395 21.0684 4.81315 21.0684H0.454088C0.20334 21.0684 0 21.2717 0 21.5225C0 21.7733 0.203283 21.9766 0.454088 21.9766H1.93739V22.9756C1.93739 23.493 2.35835 23.914 2.87581 23.914H5.32858C5.32847 23.9241 5.32779 23.9341 5.32779 23.9442C5.32779 25.5299 6.61789 26.82 8.20355 26.82C9.7892 26.82 11.0793 25.5299 11.0793 23.9442C11.0793 23.934 11.0786 23.9241 11.0785 23.914H21.3118C21.3117 23.9241 21.311 23.9341 21.311 23.9442C21.311 25.5299 22.6011 26.82 24.1867 26.82C25.7724 26.82 27.0625 25.5299 27.0625 23.9442C27.0625 23.934 27.0618 23.9241 27.0617 23.914H28.5459C28.7966 23.914 28.9999 23.7107 28.9999 23.4599V18.6165C29 17.4206 28.1177 16.427 26.9699 16.2523ZM9.79316 6.85683C8.00202 5.74379 7.47073 5.2317 7.31344 5.02541C6.90999 4.49645 7.01217 3.73786 7.54119 3.33441C7.75926 3.16811 8.01629 3.08774 8.27146 3.08774C8.6352 3.08774 8.9951 3.2512 9.23225 3.56216C9.6715 4.13808 10.3594 6.07649 10.8135 7.47331C10.5071 7.29285 10.1548 7.08164 9.79316 6.85683ZM12.3744 7.47325C12.8286 6.0765 13.5165 4.13814 13.9557 3.5621C14.3591 3.03314 15.1177 2.93101 15.6467 3.33441C16.1757 3.73786 16.2778 4.49645 15.8744 5.02541C15.7171 5.23164 15.1859 5.74379 13.3948 6.85678C13.0333 7.08153 12.681 7.2928 12.3744 7.47325ZM21.2505 11.321H24.6712C25.222 11.321 25.6702 11.7692 25.6702 12.32V12.3502H21.2505V11.321ZM21.2505 16.225V13.2584H25.2853L26.027 16.225H21.2505ZM8.20355 25.9119C7.11859 25.9119 6.23591 25.0292 6.23591 23.9442C6.23591 22.8593 7.11859 21.9766 8.20355 21.9766C9.2885 21.9766 10.1712 22.8593 10.1712 23.9442C10.1712 25.0292 9.2885 25.9119 8.20355 25.9119ZM24.1869 25.9119C23.1019 25.9119 22.2192 25.0292 22.2192 23.9442C22.2192 22.8593 23.1019 21.9766 24.1869 21.9766C25.2718 21.9766 26.1545 22.8593 26.1545 23.9442C26.1545 25.0292 25.2718 25.9119 24.1869 25.9119ZM28.0919 20.0997H27.5772C27.2935 20.0997 27.0626 19.8689 27.0626 19.5851V19.0705H28.0918V20.0997H28.0919Z" fill="#1F1E1E"/>
<path d="M8.20356 23.0059C7.68609 23.0059 7.26514 23.4268 7.26514 23.9443C7.26514 24.4617 7.68609 24.8827 8.20356 24.8827C8.72103 24.8827 9.14198 24.4617 9.14198 23.9443C9.14198 23.4268 8.72103 23.0059 8.20356 23.0059Z" fill="#1F1E1E"/>
<path d="M24.1869 23.0059C23.6694 23.0059 23.2485 23.4268 23.2485 23.9443C23.2485 24.4617 23.6694 24.8827 24.1869 24.8827C24.7044 24.8827 25.1253 24.4617 25.1253 23.9443C25.1253 23.4268 24.7044 23.0059 24.1869 23.0059Z" fill="#1F1E1E"/>
<path d="M18.8591 21.0684H12.0783C11.8275 21.0684 11.6242 21.2717 11.6242 21.5225C11.6242 21.7733 11.8275 21.9766 12.0783 21.9766H18.8591C19.1098 21.9766 19.3132 21.7733 19.3132 21.5225C19.3132 21.2717 19.1099 21.0684 18.8591 21.0684Z" fill="#1F1E1E"/>
<path d="M7.23489 19.1311H1.42278C1.17203 19.1311 0.968689 19.3344 0.968689 19.5852C0.968689 19.836 1.17197 20.0393 1.42278 20.0393H7.23489C7.48564 20.0393 7.68898 19.836 7.68898 19.5852C7.68898 19.3344 7.48564 19.1311 7.23489 19.1311Z" fill="#1F1E1E"/>
<path d="M7.23486 12.3502H5.29747C5.04672 12.3502 4.84338 12.5535 4.84338 12.8043V16.679C4.84338 16.9298 5.04667 17.1331 5.29747 17.1331C5.54828 17.1331 5.75156 16.9299 5.75156 16.679V15.1957H6.75053C7.00128 15.1957 7.20462 14.9925 7.20462 14.7417C7.20462 14.4908 7.00133 14.2876 6.75053 14.2876H5.75156V13.2584H7.23486C7.48561 13.2584 7.68895 13.0551 7.68895 12.8043C7.6889 12.5536 7.48561 12.3502 7.23486 12.3502Z" fill="#1F1E1E"/>
<path d="M10.8083 15.4087C11.2627 15.111 11.5637 14.5977 11.5637 14.0152C11.5637 13.0971 10.8168 12.3502 9.89872 12.3502H8.68785C8.4371 12.3502 8.23376 12.5535 8.23376 12.8043V16.679C8.23376 16.9298 8.43705 17.1331 8.68785 17.1331C8.93866 17.1331 9.14194 16.9299 9.14194 16.679V15.6801H9.89787L10.7317 16.9309C10.8192 17.0621 10.9632 17.1331 11.1099 17.1331C11.1965 17.1331 11.284 17.1084 11.3613 17.0568C11.5701 16.9177 11.6264 16.6358 11.4873 16.4272L10.8083 15.4087ZM9.89872 14.772H9.14194V13.2584H9.89872C10.316 13.2584 10.6555 13.5978 10.6555 14.0152C10.6555 14.4325 10.316 14.772 9.89872 14.772Z" fill="#1F1E1E"/>
<path d="M14.5 16.225H13.0167V15.1943C13.0267 15.1949 13.0367 15.1958 13.0469 15.1958H14.0156C14.2663 15.1958 14.4697 14.9925 14.4697 14.7417C14.4697 14.4909 14.2664 14.2876 14.0156 14.2876H13.0469C13.0367 14.2876 13.0267 14.2885 13.0167 14.2891V13.2584H14.5C14.7507 13.2584 14.9541 13.0551 14.9541 12.8043C14.9541 12.5536 14.7508 12.3502 14.5 12.3502H12.5626C12.3119 12.3502 12.1085 12.5535 12.1085 12.8043V16.679C12.1085 16.9298 12.3118 17.1331 12.5626 17.1331H14.5C14.7507 17.1331 14.9541 16.9299 14.9541 16.679C14.9541 16.4282 14.7507 16.225 14.5 16.225Z" fill="#1F1E1E"/>
<path d="M17.8904 16.225H16.4071V15.1958H16.9217C17.1725 15.1958 17.3758 14.9925 17.3758 14.7417C17.3758 14.4909 17.1725 14.2876 16.9217 14.2876H16.4071V13.2584H17.8904C18.1411 13.2584 18.3445 13.0551 18.3445 12.8043C18.3445 12.5536 18.1412 12.3502 17.8904 12.3502H15.953C15.7022 12.3502 15.4989 12.5535 15.4989 12.8043V16.679C15.4989 16.9298 15.7022 17.1331 15.953 17.1331H17.8904C18.1411 17.1331 18.3445 16.9299 18.3445 16.679C18.3445 16.4282 18.1411 16.225 17.8904 16.225Z" fill="#1F1E1E"/>
</svg>
