<svg width="125" height="91" viewBox="0 0 125 91" fill="none" xmlns="http://www.w3.org/2000/svg">
<g filter="url(#filter0_i_720_15)">
<path d="M116 59.0176C118.209 59.0176 120 57.2267 120 55.0176C120 52.8084 118.209 51.0176 116 51.0176C113.791 51.0176 112 52.8084 112 55.0176C112 57.2267 113.791 59.0176 116 59.0176Z" fill="white"/>
</g>
<path d="M116 58.7676C118.071 58.7676 119.75 57.0886 119.75 55.0176C119.75 52.9465 118.071 51.2676 116 51.2676C113.929 51.2676 112.25 52.9465 112.25 55.0176C112.25 57.0886 113.929 58.7676 116 58.7676Z" stroke="#790014" stroke-width="0.5"/>
<path d="M120 46H5C2.23858 46 0 48.2386 0 51V85C0 87.7614 2.23858 90 5 90H120C122.761 90 125 87.7614 125 85V51C125 48.2386 122.761 46 120 46Z" fill="#E90026"/>
<g filter="url(#filter1_i_720_15)">
<path d="M9 59.0176C11.2091 59.0176 13 57.2267 13 55.0176C13 52.8084 11.2091 51.0176 9 51.0176C6.79086 51.0176 5 52.8084 5 55.0176C5 57.2267 6.79086 59.0176 9 59.0176Z" fill="white"/>
</g>
<g filter="url(#filter2_i_720_15)">
<path d="M116 59C118.209 59 120 57.2091 120 55C120 52.7909 118.209 51 116 51C113.791 51 112 52.7909 112 55C112 57.2091 113.791 59 116 59Z" fill="white"/>
</g>
<path d="M9 58.7676C11.0711 58.7676 12.75 57.0886 12.75 55.0176C12.75 52.9465 11.0711 51.2676 9 51.2676C6.92893 51.2676 5.25 52.9465 5.25 55.0176C5.25 57.0886 6.92893 58.7676 9 58.7676Z" stroke="#790014" stroke-width="0.5"/>
<path d="M116 58.75C118.071 58.75 119.75 57.0711 119.75 55C119.75 52.9289 118.071 51.25 116 51.25C113.929 51.25 112.25 52.9289 112.25 55C112.25 57.0711 113.929 58.75 116 58.75Z" stroke="#790014" stroke-width="0.5"/>
<path d="M8.64453 54.6464L62.6445 0.646484" stroke="#E90026"/>
<path d="M62.3398 0.646484L116.34 54.6464" stroke="#E90026"/>
<path d="M21.34 69.585H23.56V73.845C22.99 74.275 22.33 74.605 21.58 74.835C20.83 75.065 20.075 75.18 19.315 75.18C18.225 75.18 17.245 74.95 16.375 74.49C15.505 74.02 14.82 73.375 14.32 72.555C13.83 71.725 13.585 70.79 13.585 69.75C13.585 68.71 13.83 67.78 14.32 66.96C14.82 66.13 15.51 65.485 16.39 65.025C17.27 64.555 18.26 64.32 19.36 64.32C20.28 64.32 21.115 64.475 21.865 64.785C22.615 65.095 23.245 65.545 23.755 66.135L22.195 67.575C21.445 66.785 20.54 66.39 19.48 66.39C18.81 66.39 18.215 66.53 17.695 66.81C17.175 67.09 16.77 67.485 16.48 67.995C16.19 68.505 16.045 69.09 16.045 69.75C16.045 70.4 16.19 70.98 16.48 71.49C16.77 72 17.17 72.4 17.68 72.69C18.2 72.97 18.79 73.11 19.45 73.11C20.15 73.11 20.78 72.96 21.34 72.66V69.585ZM33.5573 70.995C33.5573 71.025 33.5423 71.235 33.5123 71.625H27.4073C27.5173 72.125 27.7773 72.52 28.1873 72.81C28.5973 73.1 29.1073 73.245 29.7173 73.245C30.1373 73.245 30.5073 73.185 30.8273 73.065C31.1573 72.935 31.4623 72.735 31.7423 72.465L32.9873 73.815C32.2273 74.685 31.1173 75.12 29.6573 75.12C28.7473 75.12 27.9423 74.945 27.2423 74.595C26.5423 74.235 26.0023 73.74 25.6223 73.11C25.2423 72.48 25.0523 71.765 25.0523 70.965C25.0523 70.175 25.2373 69.465 25.6073 68.835C25.9873 68.195 26.5023 67.7 27.1523 67.35C27.8123 66.99 28.5473 66.81 29.3573 66.81C30.1473 66.81 30.8623 66.98 31.5023 67.32C32.1423 67.66 32.6423 68.15 33.0023 68.79C33.3723 69.42 33.5573 70.155 33.5573 70.995ZM29.3723 68.58C28.8423 68.58 28.3973 68.73 28.0373 69.03C27.6773 69.33 27.4573 69.74 27.3773 70.26H31.3523C31.2723 69.75 31.0523 69.345 30.6923 69.045C30.3323 68.735 29.8923 68.58 29.3723 68.58ZM37.8302 75.12C37.1602 75.12 36.5052 75.04 35.8652 74.88C35.2252 74.71 34.7152 74.5 34.3352 74.25L35.1152 72.57C35.4752 72.8 35.9102 72.99 36.4202 73.14C36.9302 73.28 37.4302 73.35 37.9202 73.35C38.9102 73.35 39.4052 73.105 39.4052 72.615C39.4052 72.385 39.2702 72.22 39.0002 72.12C38.7302 72.02 38.3152 71.935 37.7552 71.865C37.0952 71.765 36.5502 71.65 36.1202 71.52C35.6902 71.39 35.3152 71.16 34.9952 70.83C34.6852 70.5 34.5302 70.03 34.5302 69.42C34.5302 68.91 34.6752 68.46 34.9652 68.07C35.2652 67.67 35.6952 67.36 36.2552 67.14C36.8252 66.92 37.4952 66.81 38.2652 66.81C38.8352 66.81 39.4002 66.875 39.9602 67.005C40.5302 67.125 41.0002 67.295 41.3702 67.515L40.5902 69.18C39.8802 68.78 39.1052 68.58 38.2652 68.58C37.7652 68.58 37.3902 68.65 37.1402 68.79C36.8902 68.93 36.7652 69.11 36.7652 69.33C36.7652 69.58 36.9002 69.755 37.1702 69.855C37.4402 69.955 37.8702 70.05 38.4602 70.14C39.1202 70.25 39.6602 70.37 40.0802 70.5C40.5002 70.62 40.8652 70.845 41.1752 71.175C41.4852 71.505 41.6402 71.965 41.6402 72.555C41.6402 73.055 41.4902 73.5 41.1902 73.89C40.8902 74.28 40.4502 74.585 39.8702 74.805C39.3002 75.015 38.6202 75.12 37.8302 75.12ZM46.9839 75.12C46.1239 75.12 45.3489 74.945 44.6589 74.595C43.9789 74.235 43.4439 73.74 43.0539 73.11C42.6739 72.48 42.4839 71.765 42.4839 70.965C42.4839 70.165 42.6739 69.45 43.0539 68.82C43.4439 68.19 43.9789 67.7 44.6589 67.35C45.3489 66.99 46.1239 66.81 46.9839 66.81C47.8339 66.81 48.5739 66.99 49.2039 67.35C49.8439 67.7 50.3089 68.205 50.5989 68.865L48.7839 69.84C48.3639 69.1 47.7589 68.73 46.9689 68.73C46.3589 68.73 45.8539 68.93 45.4539 69.33C45.0539 69.73 44.8539 70.275 44.8539 70.965C44.8539 71.655 45.0539 72.2 45.4539 72.6C45.8539 73 46.3589 73.2 46.9689 73.2C47.7689 73.2 48.3739 72.83 48.7839 72.09L50.5989 73.08C50.3089 73.72 49.8439 74.22 49.2039 74.58C48.5739 74.94 47.8339 75.12 46.9839 75.12ZM56.7926 66.81C57.7926 66.81 58.5976 67.11 59.2076 67.71C59.8276 68.31 60.1376 69.2 60.1376 70.38V75H57.7976V70.74C57.7976 70.1 57.6576 69.625 57.3776 69.315C57.0976 68.995 56.6926 68.835 56.1626 68.835C55.5726 68.835 55.1026 69.02 54.7526 69.39C54.4026 69.75 54.2276 70.29 54.2276 71.01V75H51.8876V63.87H54.2276V67.77C54.5376 67.46 54.9126 67.225 55.3526 67.065C55.7926 66.895 56.2726 66.81 56.7926 66.81ZM62.2587 63.87H64.5987V75H62.2587V63.87ZM70.6104 75.12C69.7604 75.12 68.9954 74.945 68.3154 74.595C67.6454 74.235 67.1204 73.74 66.7404 73.11C66.3604 72.48 66.1704 71.765 66.1704 70.965C66.1704 70.165 66.3604 69.45 66.7404 68.82C67.1204 68.19 67.6454 67.7 68.3154 67.35C68.9954 66.99 69.7604 66.81 70.6104 66.81C71.4604 66.81 72.2204 66.99 72.8904 67.35C73.5604 67.7 74.0854 68.19 74.4654 68.82C74.8454 69.45 75.0354 70.165 75.0354 70.965C75.0354 71.765 74.8454 72.48 74.4654 73.11C74.0854 73.74 73.5604 74.235 72.8904 74.595C72.2204 74.945 71.4604 75.12 70.6104 75.12ZM70.6104 73.2C71.2104 73.2 71.7004 73 72.0804 72.6C72.4704 72.19 72.6654 71.645 72.6654 70.965C72.6654 70.285 72.4704 69.745 72.0804 69.345C71.7004 68.935 71.2104 68.73 70.6104 68.73C70.0104 68.73 69.5154 68.935 69.1254 69.345C68.7354 69.745 68.5404 70.285 68.5404 70.965C68.5404 71.645 68.7354 72.19 69.1254 72.6C69.5154 73 70.0104 73.2 70.6104 73.2ZM79.3145 75.12C78.6445 75.12 77.9895 75.04 77.3495 74.88C76.7095 74.71 76.1995 74.5 75.8195 74.25L76.5995 72.57C76.9595 72.8 77.3945 72.99 77.9045 73.14C78.4145 73.28 78.9145 73.35 79.4045 73.35C80.3945 73.35 80.8895 73.105 80.8895 72.615C80.8895 72.385 80.7545 72.22 80.4845 72.12C80.2145 72.02 79.7995 71.935 79.2395 71.865C78.5795 71.765 78.0345 71.65 77.6045 71.52C77.1745 71.39 76.7995 71.16 76.4795 70.83C76.1695 70.5 76.0145 70.03 76.0145 69.42C76.0145 68.91 76.1595 68.46 76.4495 68.07C76.7495 67.67 77.1795 67.36 77.7395 67.14C78.3095 66.92 78.9795 66.81 79.7495 66.81C80.3195 66.81 80.8845 66.875 81.4445 67.005C82.0145 67.125 82.4845 67.295 82.8545 67.515L82.0745 69.18C81.3645 68.78 80.5895 68.58 79.7495 68.58C79.2495 68.58 78.8745 68.65 78.6245 68.79C78.3745 68.93 78.2495 69.11 78.2495 69.33C78.2495 69.58 78.3845 69.755 78.6545 69.855C78.9245 69.955 79.3545 70.05 79.9445 70.14C80.6045 70.25 81.1445 70.37 81.5645 70.5C81.9845 70.62 82.3495 70.845 82.6595 71.175C82.9695 71.505 83.1245 71.965 83.1245 72.555C83.1245 73.055 82.9745 73.5 82.6745 73.89C82.3745 74.28 81.9345 74.585 81.3545 74.805C80.7845 75.015 80.1045 75.12 79.3145 75.12ZM87.2833 75.12C86.6133 75.12 85.9583 75.04 85.3183 74.88C84.6783 74.71 84.1683 74.5 83.7883 74.25L84.5683 72.57C84.9283 72.8 85.3633 72.99 85.8733 73.14C86.3833 73.28 86.8833 73.35 87.3733 73.35C88.3633 73.35 88.8583 73.105 88.8583 72.615C88.8583 72.385 88.7233 72.22 88.4533 72.12C88.1833 72.02 87.7683 71.935 87.2083 71.865C86.5483 71.765 86.0033 71.65 85.5733 71.52C85.1433 71.39 84.7683 71.16 84.4483 70.83C84.1383 70.5 83.9833 70.03 83.9833 69.42C83.9833 68.91 84.1283 68.46 84.4183 68.07C84.7183 67.67 85.1483 67.36 85.7083 67.14C86.2783 66.92 86.9483 66.81 87.7183 66.81C88.2883 66.81 88.8533 66.875 89.4133 67.005C89.9833 67.125 90.4533 67.295 90.8233 67.515L90.0433 69.18C89.3333 68.78 88.5583 68.58 87.7183 68.58C87.2183 68.58 86.8433 68.65 86.5933 68.79C86.3433 68.93 86.2183 69.11 86.2183 69.33C86.2183 69.58 86.3533 69.755 86.6233 69.855C86.8933 69.955 87.3233 70.05 87.9133 70.14C88.5733 70.25 89.1133 70.37 89.5333 70.5C89.9533 70.62 90.3183 70.845 90.6283 71.175C90.9383 71.505 91.0933 71.965 91.0933 72.555C91.0933 73.055 90.9433 73.5 90.6433 73.89C90.3433 74.28 89.9033 74.585 89.3233 74.805C88.7533 75.015 88.0733 75.12 87.2833 75.12ZM100.442 70.995C100.442 71.025 100.427 71.235 100.397 71.625H94.292C94.402 72.125 94.662 72.52 95.072 72.81C95.482 73.1 95.992 73.245 96.602 73.245C97.022 73.245 97.392 73.185 97.712 73.065C98.042 72.935 98.347 72.735 98.627 72.465L99.872 73.815C99.112 74.685 98.002 75.12 96.542 75.12C95.632 75.12 94.827 74.945 94.127 74.595C93.427 74.235 92.887 73.74 92.507 73.11C92.127 72.48 91.937 71.765 91.937 70.965C91.937 70.175 92.122 69.465 92.492 68.835C92.872 68.195 93.387 67.7 94.037 67.35C94.697 66.99 95.432 66.81 96.242 66.81C97.032 66.81 97.747 66.98 98.387 67.32C99.027 67.66 99.527 68.15 99.887 68.79C100.257 69.42 100.442 70.155 100.442 70.995ZM96.257 68.58C95.727 68.58 95.282 68.73 94.922 69.03C94.562 69.33 94.342 69.74 94.262 70.26H98.237C98.157 69.75 97.937 69.345 97.577 69.045C97.217 68.735 96.777 68.58 96.257 68.58ZM106.905 66.81C107.905 66.81 108.71 67.11 109.32 67.71C109.94 68.31 110.25 69.2 110.25 70.38V75H107.91V70.74C107.91 70.1 107.77 69.625 107.49 69.315C107.21 68.995 106.805 68.835 106.275 68.835C105.685 68.835 105.215 69.02 104.865 69.39C104.515 69.75 104.34 70.29 104.34 71.01V75H102V66.93H104.235V67.875C104.545 67.535 104.93 67.275 105.39 67.095C105.85 66.905 106.355 66.81 106.905 66.81Z" fill="white"/>
<defs>
<filter id="filter0_i_720_15" x="112" y="51.0176" width="8" height="8" filterUnits="userSpaceOnUse" color-interpolation-filters="sRGB">
<feFlood flood-opacity="0" result="BackgroundImageFix"/>
<feBlend mode="normal" in="SourceGraphic" in2="BackgroundImageFix" result="shape"/>
<feColorMatrix in="SourceAlpha" type="matrix" values="0 0 0 0 0 0 0 0 0 0 0 0 0 0 0 0 0 0 127 0" result="hardAlpha"/>
<feOffset/>
<feGaussianBlur stdDeviation="2"/>
<feComposite in2="hardAlpha" operator="arithmetic" k2="-1" k3="1"/>
<feColorMatrix type="matrix" values="0 0 0 0 0 0 0 0 0 0 0 0 0 0 0 0 0 0 0.25 0"/>
<feBlend mode="normal" in2="shape" result="effect1_innerShadow_720_15"/>
</filter>
<filter id="filter1_i_720_15" x="5" y="51.0176" width="8" height="8" filterUnits="userSpaceOnUse" color-interpolation-filters="sRGB">
<feFlood flood-opacity="0" result="BackgroundImageFix"/>
<feBlend mode="normal" in="SourceGraphic" in2="BackgroundImageFix" result="shape"/>
<feColorMatrix in="SourceAlpha" type="matrix" values="0 0 0 0 0 0 0 0 0 0 0 0 0 0 0 0 0 0 127 0" result="hardAlpha"/>
<feOffset/>
<feGaussianBlur stdDeviation="2"/>
<feComposite in2="hardAlpha" operator="arithmetic" k2="-1" k3="1"/>
<feColorMatrix type="matrix" values="0 0 0 0 0 0 0 0 0 0 0 0 0 0 0 0 0 0 0.25 0"/>
<feBlend mode="normal" in2="shape" result="effect1_innerShadow_720_15"/>
</filter>
<filter id="filter2_i_720_15" x="112" y="51" width="8" height="8" filterUnits="userSpaceOnUse" color-interpolation-filters="sRGB">
<feFlood flood-opacity="0" result="BackgroundImageFix"/>
<feBlend mode="normal" in="SourceGraphic" in2="BackgroundImageFix" result="shape"/>
<feColorMatrix in="SourceAlpha" type="matrix" values="0 0 0 0 0 0 0 0 0 0 0 0 0 0 0 0 0 0 127 0" result="hardAlpha"/>
<feOffset/>
<feGaussianBlur stdDeviation="2"/>
<feComposite in2="hardAlpha" operator="arithmetic" k2="-1" k3="1"/>
<feColorMatrix type="matrix" values="0 0 0 0 0 0 0 0 0 0 0 0 0 0 0 0 0 0 0.25 0"/>
<feBlend mode="normal" in2="shape" result="effect1_innerShadow_720_15"/>
</filter>
</defs>
</svg>
