<svg width="125" height="90" viewBox="0 0 125 90" fill="none" xmlns="http://www.w3.org/2000/svg">
<g filter="url(#filter0_i_720_2)">
<path d="M116 59C118.209 59 120 57.2091 120 55C120 52.7909 118.209 51 116 51C113.791 51 112 52.7909 112 55C112 57.2091 113.791 59 116 59Z" fill="white"/>
</g>
<path d="M116 58.75C118.071 58.75 119.75 57.0711 119.75 55C119.75 52.9289 118.071 51.25 116 51.25C113.929 51.25 112.25 52.9289 112.25 55C112.25 57.0711 113.929 58.75 116 58.75Z" stroke="#245202" stroke-width="0.5"/>
<path d="M120 46H5C2.23858 46 0 48.2386 0 51V85C0 87.7614 2.23858 90 5 90H120C122.761 90 125 87.7614 125 85V51C125 48.2386 122.761 46 120 46Z" fill="#57CC02"/>
<g filter="url(#filter1_i_720_2)">
<path d="M9 59C11.2091 59 13 57.2091 13 55C13 52.7909 11.2091 51 9 51C6.79086 51 5 52.7909 5 55C5 57.2091 6.79086 59 9 59Z" fill="white"/>
<path d="M116 59C118.209 59 120 57.2091 120 55C120 52.7909 118.209 51 116 51C113.791 51 112 52.7909 112 55C112 57.2091 113.791 59 116 59Z" fill="white"/>
</g>
<path d="M9 58.75C11.0711 58.75 12.75 57.0711 12.75 55C12.75 52.9289 11.0711 51.25 9 51.25C6.92893 51.25 5.25 52.9289 5.25 55C5.25 57.0711 6.92893 58.75 9 58.75Z" stroke="#245202" stroke-width="0.5"/>
<path d="M116 58.75C118.071 58.75 119.75 57.0711 119.75 55C119.75 52.9289 118.071 51.25 116 51.25C113.929 51.25 112.25 52.9289 112.25 55C112.25 57.0711 113.929 58.75 116 58.75Z" stroke="#245202" stroke-width="0.5"/>
<path d="M8.64453 54.6289L62.6445 0.628906" stroke="#57CC02"/>
<path d="M62.3398 0.628906L116.34 54.6289" stroke="#57CC02"/>
<path d="M35.34 69.585H37.56V73.845C36.99 74.275 36.33 74.605 35.58 74.835C34.83 75.065 34.075 75.18 33.315 75.18C32.225 75.18 31.245 74.95 30.375 74.49C29.505 74.02 28.82 73.375 28.32 72.555C27.83 71.725 27.585 70.79 27.585 69.75C27.585 68.71 27.83 67.78 28.32 66.96C28.82 66.13 29.51 65.485 30.39 65.025C31.27 64.555 32.26 64.32 33.36 64.32C34.28 64.32 35.115 64.475 35.865 64.785C36.615 65.095 37.245 65.545 37.755 66.135L36.195 67.575C35.445 66.785 34.54 66.39 33.48 66.39C32.81 66.39 32.215 66.53 31.695 66.81C31.175 67.09 30.77 67.485 30.48 67.995C30.19 68.505 30.045 69.09 30.045 69.75C30.045 70.4 30.19 70.98 30.48 71.49C30.77 72 31.17 72.4 31.68 72.69C32.2 72.97 32.79 73.11 33.45 73.11C34.15 73.11 34.78 72.96 35.34 72.66V69.585ZM47.5573 70.995C47.5573 71.025 47.5423 71.235 47.5123 71.625H41.4073C41.5173 72.125 41.7773 72.52 42.1873 72.81C42.5973 73.1 43.1073 73.245 43.7173 73.245C44.1373 73.245 44.5073 73.185 44.8273 73.065C45.1573 72.935 45.4623 72.735 45.7423 72.465L46.9873 73.815C46.2273 74.685 45.1173 75.12 43.6573 75.12C42.7473 75.12 41.9423 74.945 41.2423 74.595C40.5423 74.235 40.0023 73.74 39.6223 73.11C39.2423 72.48 39.0523 71.765 39.0523 70.965C39.0523 70.175 39.2373 69.465 39.6073 68.835C39.9873 68.195 40.5023 67.7 41.1523 67.35C41.8123 66.99 42.5473 66.81 43.3573 66.81C44.1473 66.81 44.8623 66.98 45.5023 67.32C46.1423 67.66 46.6423 68.15 47.0023 68.79C47.3723 69.42 47.5573 70.155 47.5573 70.995ZM43.3723 68.58C42.8423 68.58 42.3973 68.73 42.0373 69.03C41.6773 69.33 41.4573 69.74 41.3773 70.26H45.3523C45.2723 69.75 45.0523 69.345 44.6923 69.045C44.3323 68.735 43.8923 68.58 43.3723 68.58ZM52.9552 75.12C52.1052 75.12 51.3402 74.945 50.6602 74.595C49.9902 74.235 49.4652 73.74 49.0852 73.11C48.7052 72.48 48.5152 71.765 48.5152 70.965C48.5152 70.165 48.7052 69.45 49.0852 68.82C49.4652 68.19 49.9902 67.7 50.6602 67.35C51.3402 66.99 52.1052 66.81 52.9552 66.81C53.8052 66.81 54.5652 66.99 55.2352 67.35C55.9052 67.7 56.4302 68.19 56.8102 68.82C57.1902 69.45 57.3802 70.165 57.3802 70.965C57.3802 71.765 57.1902 72.48 56.8102 73.11C56.4302 73.74 55.9052 74.235 55.2352 74.595C54.5652 74.945 53.8052 75.12 52.9552 75.12ZM52.9552 73.2C53.5552 73.2 54.0452 73 54.4252 72.6C54.8152 72.19 55.0102 71.645 55.0102 70.965C55.0102 70.285 54.8152 69.745 54.4252 69.345C54.0452 68.935 53.5552 68.73 52.9552 68.73C52.3552 68.73 51.8602 68.935 51.4702 69.345C51.0802 69.745 50.8852 70.285 50.8852 70.965C50.8852 71.645 51.0802 72.19 51.4702 72.6C51.8602 73 52.3552 73.2 52.9552 73.2ZM51.4102 65.82C51.1102 65.82 50.8602 65.725 50.6602 65.535C50.4602 65.335 50.3602 65.085 50.3602 64.785C50.3602 64.485 50.4602 64.24 50.6602 64.05C50.8602 63.85 51.1102 63.75 51.4102 63.75C51.7102 63.75 51.9552 63.85 52.1452 64.05C52.3452 64.24 52.4452 64.485 52.4452 64.785C52.4452 65.085 52.3452 65.335 52.1452 65.535C51.9552 65.725 51.7102 65.82 51.4102 65.82ZM54.4402 65.82C54.1402 65.82 53.8902 65.725 53.6902 65.535C53.5002 65.335 53.4052 65.085 53.4052 64.785C53.4052 64.485 53.5002 64.24 53.6902 64.05C53.8902 63.85 54.1402 63.75 54.4402 63.75C54.7402 63.75 54.9902 63.85 55.1902 64.05C55.3902 64.24 55.4902 64.485 55.4902 64.785C55.4902 65.085 55.3902 65.335 55.1902 65.535C54.9902 65.725 54.7402 65.82 54.4402 65.82ZM61.5093 67.11H63.5793V68.91H61.5693V75H59.2293V68.91H57.9843V67.11H59.2293V66.75C59.2293 65.83 59.4993 65.1 60.0393 64.56C60.5893 64.02 61.3593 63.75 62.3493 63.75C62.6993 63.75 63.0293 63.79 63.3393 63.87C63.6593 63.94 63.9243 64.045 64.1343 64.185L63.5193 65.88C63.2493 65.69 62.9343 65.595 62.5743 65.595C61.8643 65.595 61.5093 65.985 61.5093 66.765V67.11ZM67.31 67.11H69.38V68.91H67.37V75H65.03V68.91H63.785V67.11H65.03V66.75C65.03 65.83 65.3 65.1 65.84 64.56C66.39 64.02 67.16 63.75 68.15 63.75C68.5 63.75 68.83 63.79 69.14 63.87C69.46 63.94 69.725 64.045 69.935 64.185L69.32 65.88C69.05 65.69 68.735 65.595 68.375 65.595C67.665 65.595 67.31 65.985 67.31 66.765V67.11ZM76.652 66.81C77.652 66.81 78.457 67.11 79.067 67.71C79.687 68.31 79.997 69.2 79.997 70.38V75H77.657V70.74C77.657 70.1 77.517 69.625 77.237 69.315C76.957 68.995 76.552 68.835 76.022 68.835C75.432 68.835 74.962 69.02 74.612 69.39C74.262 69.75 74.087 70.29 74.087 71.01V75H71.747V66.93H73.982V67.875C74.292 67.535 74.677 67.275 75.137 67.095C75.597 66.905 76.102 66.81 76.652 66.81ZM90.111 70.995C90.111 71.025 90.096 71.235 90.066 71.625H83.961C84.071 72.125 84.331 72.52 84.741 72.81C85.151 73.1 85.661 73.245 86.271 73.245C86.691 73.245 87.061 73.185 87.381 73.065C87.711 72.935 88.016 72.735 88.296 72.465L89.541 73.815C88.781 74.685 87.671 75.12 86.211 75.12C85.301 75.12 84.496 74.945 83.796 74.595C83.096 74.235 82.556 73.74 82.176 73.11C81.796 72.48 81.606 71.765 81.606 70.965C81.606 70.175 81.791 69.465 82.161 68.835C82.541 68.195 83.056 67.7 83.706 67.35C84.366 66.99 85.101 66.81 85.911 66.81C86.701 66.81 87.416 66.98 88.056 67.32C88.696 67.66 89.196 68.15 89.556 68.79C89.926 69.42 90.111 70.155 90.111 70.995ZM85.926 68.58C85.396 68.58 84.951 68.73 84.591 69.03C84.231 69.33 84.011 69.74 83.931 70.26H87.906C87.826 69.75 87.606 69.345 87.246 69.045C86.886 68.735 86.446 68.58 85.926 68.58ZM96.8739 74.61C96.6439 74.78 96.3589 74.91 96.0189 75C95.6889 75.08 95.3389 75.12 94.9689 75.12C94.0089 75.12 93.2639 74.875 92.7339 74.385C92.2139 73.895 91.9539 73.175 91.9539 72.225V68.91H90.7089V67.11H91.9539V65.145H94.2939V67.11H96.3039V68.91H94.2939V72.195C94.2939 72.535 94.3789 72.8 94.5489 72.99C94.7289 73.17 94.9789 73.26 95.2989 73.26C95.6689 73.26 95.9839 73.16 96.2439 72.96L96.8739 74.61Z" fill="white"/>
<defs>
<filter id="filter0_i_720_2" x="112" y="51" width="8" height="8" filterUnits="userSpaceOnUse" color-interpolation-filters="sRGB">
<feFlood flood-opacity="0" result="BackgroundImageFix"/>
<feBlend mode="normal" in="SourceGraphic" in2="BackgroundImageFix" result="shape"/>
<feColorMatrix in="SourceAlpha" type="matrix" values="0 0 0 0 0 0 0 0 0 0 0 0 0 0 0 0 0 0 127 0" result="hardAlpha"/>
<feOffset/>
<feGaussianBlur stdDeviation="2"/>
<feComposite in2="hardAlpha" operator="arithmetic" k2="-1" k3="1"/>
<feColorMatrix type="matrix" values="0 0 0 0 0 0 0 0 0 0 0 0 0 0 0 0 0 0 0.25 0"/>
<feBlend mode="normal" in2="shape" result="effect1_innerShadow_720_2"/>
</filter>
<filter id="filter1_i_720_2" x="5" y="51" width="115" height="8" filterUnits="userSpaceOnUse" color-interpolation-filters="sRGB">
<feFlood flood-opacity="0" result="BackgroundImageFix"/>
<feBlend mode="normal" in="SourceGraphic" in2="BackgroundImageFix" result="shape"/>
<feColorMatrix in="SourceAlpha" type="matrix" values="0 0 0 0 0 0 0 0 0 0 0 0 0 0 0 0 0 0 127 0" result="hardAlpha"/>
<feOffset/>
<feGaussianBlur stdDeviation="2"/>
<feComposite in2="hardAlpha" operator="arithmetic" k2="-1" k3="1"/>
<feColorMatrix type="matrix" values="0 0 0 0 0 0 0 0 0 0 0 0 0 0 0 0 0 0 0.25 0"/>
<feBlend mode="normal" in2="shape" result="effect1_innerShadow_720_2"/>
</filter>
</defs>
</svg>
