<svg width="29" height="29" viewBox="0 0 29 29" fill="none" xmlns="http://www.w3.org/2000/svg">
<g clip-path="url(#clip0)">
<path d="M20.6034 15.6288H16.6629C15.5844 15.6288 14.7074 16.5058 14.7074 17.5843V20.6064C14.7074 21.6848 15.5844 22.5618 16.6629 22.5618H20.6034C21.6819 22.5618 22.5589 21.6848 22.5589 20.6064V17.5843C22.5589 16.5058 21.6819 15.6288 20.6034 15.6288ZM21.1367 20.6064C21.1367 20.9027 20.8938 21.1397 20.6034 21.1397H16.6629C16.3666 21.1397 16.1296 20.8967 16.1296 20.6064V17.5843C16.1296 17.288 16.3725 17.051 16.6629 17.051H20.6034C20.8997 17.051 21.1367 17.2939 21.1367 17.5843V20.6064Z" fill="#1F1E1E"/>
<path d="M29 10.1358C29 10.0113 28.9704 9.89283 28.9052 9.78616L24.5913 2.20137C24.4669 1.98212 24.2299 1.8399 23.9751 1.8399H5.019C4.7642 1.8399 4.52718 1.97619 4.40274 2.20137L0.09481 9.78616C0.0355537 9.89283 0 10.0113 0 10.1358C0 11.8364 1.02513 13.2941 2.48876 13.94V26.449C2.48876 26.8401 2.80875 27.1601 3.19984 27.1601H7.12853C7.13445 27.1601 7.14038 27.1601 7.1463 27.1601H12.6571C12.6631 27.1601 12.669 27.1601 12.6749 27.1601H25.7942C26.1853 27.1601 26.5053 26.8401 26.5053 26.449V14.0289C26.5053 13.9993 26.5053 13.9756 26.4994 13.9519C27.9689 13.306 29 11.8424 29 10.1358ZM5.4338 3.26798H23.5603L26.932 9.19953H2.06804L5.4338 3.26798ZM20.6389 10.6158C20.4138 11.8957 19.2938 12.8675 17.9487 12.8675C16.6036 12.8675 15.4837 11.8957 15.2585 10.6158H20.6389ZM13.7474 10.6158C13.5223 11.8957 12.4023 12.8675 11.0572 12.8675C9.7121 12.8675 8.59215 11.8957 8.36105 10.6158H13.7474ZM1.46955 10.6158H6.85595C6.63077 11.8957 5.5049 12.8675 4.15979 12.8675C2.81467 12.8734 1.69473 11.8957 1.46955 10.6158ZM11.9461 25.7379H7.85738V18.0643C7.85738 17.5073 8.30772 17.051 8.87066 17.051H10.9387C11.4957 17.051 11.952 17.5013 11.952 18.0643V25.7379H11.9461ZM25.0832 25.7379H13.3682V18.0643C13.3682 16.7251 12.2779 15.6288 10.9328 15.6288H8.86473C7.52554 15.6288 6.4293 16.7191 6.4293 18.0643V25.7439H3.91091V14.2896C3.99387 14.2956 4.07683 14.2956 4.15979 14.2956C5.59379 14.2956 6.86187 13.5667 7.6085 12.4586C8.35513 13.5667 9.62321 14.2956 11.0572 14.2956C12.4912 14.2956 13.7534 13.5667 14.5059 12.4586C15.2526 13.5667 16.5206 14.2956 17.9487 14.2956C19.3827 14.2956 20.6449 13.5667 21.3915 12.4586C22.1381 13.5667 23.4062 14.2956 24.8402 14.2956C24.9232 14.2956 25.0002 14.2896 25.0832 14.2896V25.7379ZM24.8402 12.8734C23.4951 12.8734 22.3752 11.9016 22.15 10.6217H27.5364C27.3053 11.8957 26.1853 12.8734 24.8402 12.8734Z" fill="#1F1E1E"/>
</g>
<defs>
<clipPath id="clip0">
<rect width="29" height="29" fill="white"/>
</clipPath>
</defs>
</svg>
