<svg xmlns="http://www.w3.org/2000/svg" viewBox="0 0 68.48 71"><defs><style>.cls-1{isolation:isolate;}.cls-2{opacity:0.24;}.cls-3{fill:#57cc02;}</style></defs><title>Offer</title><g id="header_section" data-name="header section"><g id="Shape_6" data-name="Shape 6"><path class="cls-3" d="M63.13,28.1a9.18,9.18,0,0,0-6.88-6.45A9.2,9.2,0,0,0,42.85,12a9.17,9.17,0,0,0-16.49-.66,9.21,9.21,0,0,0-13.12,9.5A9.25,9.25,0,0,0,8.12,36.21a9.25,9.25,0,0,0,4.82,15.51,9.2,9.2,0,0,0,12.93,9.75A9.17,9.17,0,0,0,42,61.79a9.21,9.21,0,0,0,13.31-9.24,9.24,9.24,0,0,0,5.41-15.3A9.26,9.26,0,0,0,63.13,28.1Z"/></g></g></svg>