<svg width="125" height="90" viewBox="0 0 125 90" fill="none" xmlns="http://www.w3.org/2000/svg">
<rect y="46" width="125" height="44" rx="5" fill="#57CC02"/>
<path d="M26.557 67.999C26.557 66.9337 26.217 66.027 25.537 65.279C24.857 64.531 24.0183 64.157 23.021 64.157C22.035 64.157 21.202 64.531 20.522 65.279C19.842 66.027 19.502 66.9337 19.502 67.999C19.502 69.053 19.842 69.954 20.522 70.702C21.202 71.4387 22.035 71.807 23.021 71.807C24.0183 71.807 24.857 71.4387 25.537 70.702C26.217 69.954 26.557 69.053 26.557 67.999ZM27.458 72.368C26.2567 73.5353 24.7777 74.119 23.021 74.119C21.2643 74.119 19.7853 73.5353 18.584 72.368C17.3827 71.1893 16.782 69.7273 16.782 67.982C16.782 66.2367 17.3827 64.7803 18.584 63.613C19.7853 62.4343 21.2643 61.845 23.021 61.845C24.7777 61.845 26.2567 62.4343 27.458 63.613C28.6593 64.7803 29.26 66.2367 29.26 67.982C29.26 69.7273 28.6593 71.1893 27.458 72.368ZM36.5729 64.701C37.6383 64.701 38.5846 65.1487 39.4119 66.044C40.2506 66.928 40.6699 68.0443 40.6699 69.393C40.6699 70.7417 40.2506 71.8693 39.4119 72.776C38.5846 73.6827 37.6099 74.136 36.4879 74.136C35.3773 74.136 34.4819 73.6883 33.8019 72.793V77.298H31.2519V64.854H33.8019V65.874C34.5839 65.092 35.5076 64.701 36.5729 64.701ZM33.7679 69.444C33.7679 70.1807 33.9719 70.787 34.3799 71.263C34.7993 71.7277 35.3036 71.96 35.8929 71.96C36.4823 71.96 36.9979 71.7277 37.4399 71.263C37.8819 70.787 38.1029 70.1807 38.1029 69.444C38.1029 68.7073 37.8876 68.0897 37.4569 67.591C37.0263 67.0923 36.5106 66.843 35.9099 66.843C35.3093 66.843 34.7993 67.0923 34.3799 67.591C33.9719 68.0783 33.7679 68.696 33.7679 69.444ZM50.4962 72.674C49.4649 73.6487 48.2522 74.136 46.8582 74.136C45.4755 74.136 44.3309 73.711 43.4242 72.861C42.5175 71.9997 42.0642 70.8493 42.0642 69.41C42.0642 67.9707 42.5232 66.826 43.4412 65.976C44.3705 65.126 45.4642 64.701 46.7222 64.701C47.9802 64.701 49.0455 65.0807 49.9182 65.84C50.8022 66.5993 51.2442 67.642 51.2442 68.968V70.328H44.5802C44.6595 70.8267 44.9202 71.2347 45.3622 71.552C45.8042 71.8693 46.3029 72.028 46.8582 72.028C47.7535 72.028 48.4902 71.7277 49.0682 71.127L50.4962 72.674ZM48.6602 68.509C48.6035 67.965 48.3995 67.5457 48.0482 67.251C47.6969 66.9563 47.2662 66.809 46.7562 66.809C46.2575 66.809 45.7985 66.962 45.3792 67.268C44.9599 67.574 44.7162 67.9877 44.6482 68.509H48.6602ZM55.633 68.9V74H53.083V64.854H55.633V65.874C56.4036 65.092 57.2706 64.701 58.234 64.701C59.1973 64.701 60.002 65.041 60.648 65.721C61.3053 66.401 61.634 67.3077 61.634 68.441V74H59.084V68.832C59.084 67.4267 58.5683 66.724 57.537 66.724C57.027 66.724 56.5793 66.911 56.194 67.285C55.82 67.6477 55.633 68.186 55.633 68.9ZM76.9908 62.117H79.6428V74H76.9908L71.3298 66.554V74H68.6778V62.117H71.1598L76.9908 69.767V62.117ZM84.3583 69.427C84.3583 70.175 84.568 70.787 84.9873 71.263C85.418 71.7277 85.962 71.96 86.6193 71.96C87.288 71.96 87.832 71.7277 88.2513 71.263C88.682 70.787 88.8973 70.175 88.8973 69.427C88.8973 68.679 88.682 68.067 88.2513 67.591C87.832 67.115 87.288 66.877 86.6193 66.877C85.962 66.877 85.418 67.115 84.9873 67.591C84.568 68.067 84.3583 68.679 84.3583 69.427ZM91.4643 69.427C91.4643 70.753 91.0053 71.8693 90.0873 72.776C89.1693 73.6827 88.0133 74.136 86.6193 74.136C85.2367 74.136 84.0863 73.6827 83.1683 72.776C82.2503 71.8693 81.7913 70.753 81.7913 69.427C81.7913 68.101 82.2503 66.9847 83.1683 66.078C84.0863 65.16 85.2367 64.701 86.6193 64.701C88.0133 64.701 89.1693 65.16 90.0873 66.078C91.0053 66.9847 91.4643 68.101 91.4643 69.427ZM97.9524 74H95.3174L92.2064 64.854H94.8414L96.6264 70.379L98.4114 64.854H100.876L102.661 70.379L104.446 64.854H107.098L103.987 74H101.335L99.6524 69.019L97.9524 74Z" fill="white"/>
<g filter="url(#filter0_i)">
<circle cx="9" cy="55" r="4" fill="white"/>
</g>
<circle cx="9" cy="55" r="3.75" stroke="#245202" stroke-width="0.5"/>
<g filter="url(#filter1_i)">
<circle cx="116" cy="55" r="4" fill="white"/>
</g>
<circle cx="116" cy="55" r="3.75" stroke="#245202" stroke-width="0.5"/>
<line x1="8.64645" y1="54.6294" x2="62.6464" y2="0.629359" stroke="#57CC02"/>
<line x1="62.3379" y1="0.629357" x2="116.338" y2="54.6294" stroke="#57CC02"/>
<defs>
<filter id="filter0_i" x="5" y="51" width="8" height="8" filterUnits="userSpaceOnUse" color-interpolation-filters="sRGB">
<feFlood flood-opacity="0" result="BackgroundImageFix"/>
<feBlend mode="normal" in="SourceGraphic" in2="BackgroundImageFix" result="shape"/>
<feColorMatrix in="SourceAlpha" type="matrix" values="0 0 0 0 0 0 0 0 0 0 0 0 0 0 0 0 0 0 127 0" result="hardAlpha"/>
<feOffset/>
<feGaussianBlur stdDeviation="2"/>
<feComposite in2="hardAlpha" operator="arithmetic" k2="-1" k3="1"/>
<feColorMatrix type="matrix" values="0 0 0 0 0 0 0 0 0 0 0 0 0 0 0 0 0 0 0.25 0"/>
<feBlend mode="normal" in2="shape" result="effect1_innerShadow"/>
</filter>
<filter id="filter1_i" x="112" y="51" width="8" height="8" filterUnits="userSpaceOnUse" color-interpolation-filters="sRGB">
<feFlood flood-opacity="0" result="BackgroundImageFix"/>
<feBlend mode="normal" in="SourceGraphic" in2="BackgroundImageFix" result="shape"/>
<feColorMatrix in="SourceAlpha" type="matrix" values="0 0 0 0 0 0 0 0 0 0 0 0 0 0 0 0 0 0 127 0" result="hardAlpha"/>
<feOffset/>
<feGaussianBlur stdDeviation="2"/>
<feComposite in2="hardAlpha" operator="arithmetic" k2="-1" k3="1"/>
<feColorMatrix type="matrix" values="0 0 0 0 0 0 0 0 0 0 0 0 0 0 0 0 0 0 0.25 0"/>
<feBlend mode="normal" in2="shape" result="effect1_innerShadow"/>
</filter>
</defs>
</svg>
