<svg width="19" height="19" viewBox="0 0 19 19" fill="none" xmlns="http://www.w3.org/2000/svg">
<g clip-path="url(#clip0)">
<path d="M18.9728 7.3201C18.9074 7.11856 18.7332 6.97168 18.5236 6.94125L12.6335 6.08532L9.99927 0.748014C9.90553 0.558015 9.71201 0.437744 9.50015 0.437744C9.28826 0.437744 9.09477 0.558015 9.001 0.748014L6.36669 6.08532L0.476711 6.94125C0.267081 6.97168 0.0928531 7.11856 0.0273925 7.32006C-0.0381053 7.5216 0.0165194 7.74281 0.168259 7.89069L4.43018 12.0452L3.42422 17.9116C3.38838 18.1204 3.47425 18.3314 3.64565 18.456C3.74262 18.5264 3.85747 18.5623 3.97288 18.5623C4.0615 18.5623 4.15041 18.5411 4.23183 18.4983L9.50012 15.7286L14.7682 18.4983C14.9558 18.5969 15.183 18.5805 15.3544 18.4559C15.5258 18.3314 15.6117 18.1203 15.5759 17.9115L14.5696 12.0452L18.832 7.89065C18.9837 7.74281 19.0384 7.5216 18.9728 7.3201Z" fill="#FF8000"/>
</g>
<defs>
<clipPath id="clip0">
<rect width="19" height="19" fill="white"/>
</clipPath>
</defs>
</svg>
