<svg width="19" height="19" viewBox="0 0 19 19" fill="none" xmlns="http://www.w3.org/2000/svg">
<g clip-path="url(#clip0)">
<path d="M18.4974 7.47474L18.4973 7.47455C18.4906 7.45397 18.4729 7.43913 18.4517 7.43606L18.4517 7.43605L12.5616 6.58013L12.3014 6.54233L12.1851 6.30661L9.55091 0.969303L9.55087 0.969236C9.54139 0.950003 9.52174 0.937744 9.50015 0.937744C9.47857 0.937744 9.4589 0.949982 9.44936 0.969306L9.00206 0.74854L9.44936 0.96931L6.81505 6.30662L6.69871 6.54233L6.43859 6.58013L0.548615 7.43605L0.548537 7.43606C0.527316 7.43914 0.509583 7.45406 0.502929 7.47454L0.502911 7.4746C0.496249 7.4951 0.501802 7.51757 0.517229 7.53261L0.517273 7.53265L4.77919 11.6872L4.96741 11.8707L4.92299 12.1297L3.91703 17.9961L3.91702 17.9961C3.91339 18.0173 3.92204 18.0388 3.93961 18.0515C3.94942 18.0586 3.96094 18.0623 3.97288 18.0623C3.98199 18.0623 3.99083 18.0601 3.99907 18.0558L3.99916 18.0558L9.26744 15.286L9.50012 15.1637L9.7328 15.286L15.0008 18.0557L18.4974 7.47474ZM18.4974 7.47474C18.504 7.49508 18.4985 7.51753 18.483 7.53257L18.483 7.5326L14.2206 11.6872L14.0324 11.8707M18.4974 7.47474L14.0324 11.8707M14.0324 11.8707L14.0768 12.1297M14.0324 11.8707L14.0768 12.1297M14.0768 12.1297L15.0831 17.996C15.0831 17.996 15.0831 17.996 15.0831 17.996C15.0867 18.0172 15.078 18.0387 15.0605 18.0514C15.0431 18.0641 15.0201 18.0658 15.0009 18.0557L14.0768 12.1297Z" stroke="#B6B6B6"/>
</g>
<defs>
<clipPath id="clip0">
<rect width="19" height="19" fill="white"/>
</clipPath>
</defs>
</svg>
