<svg width="18" height="18" viewBox="0 0 18 18" fill="none" xmlns="http://www.w3.org/2000/svg">
<g clip-path="url(#clip0)">
<path d="M8.87173 8.67065C10.0629 8.67065 11.0944 8.24342 11.9372 7.4005C12.78 6.55771 13.2072 5.52651 13.2072 4.33519C13.2072 3.14427 12.78 2.11294 11.9371 1.26988C11.0941 0.427229 10.0628 0 8.87173 0C7.6804 0 6.6492 0.427229 5.80641 1.27001C4.96362 2.1128 4.53625 3.14414 4.53625 4.33519C4.53625 5.52651 4.96362 6.55785 5.80655 7.40064C6.64948 8.24328 7.68082 8.67065 8.87173 8.67065V8.67065Z" fill="#EA0027"/>
<path d="M16.4577 13.841C16.4333 13.4903 16.3842 13.1077 16.3118 12.7037C16.2388 12.2966 16.1447 11.9118 16.0321 11.5601C15.9158 11.1966 15.7576 10.8377 15.562 10.4936C15.359 10.1366 15.1206 9.82568 14.8531 9.56984C14.5734 9.30218 14.2309 9.08699 13.8348 8.93002C13.4401 8.77388 13.0027 8.69478 12.5349 8.69478C12.3511 8.69478 12.1734 8.77017 11.8302 8.99361C11.619 9.13135 11.3719 9.29065 11.0962 9.46684C10.8604 9.61708 10.541 9.75784 10.1464 9.88528C9.76149 10.0098 9.37065 10.073 8.98489 10.073C8.59914 10.073 8.20844 10.0098 7.82309 9.88528C7.42896 9.75798 7.10953 9.61721 6.87401 9.46698C6.60086 9.29243 6.35367 9.13313 6.1393 8.99347C5.79652 8.77003 5.61868 8.69464 5.43494 8.69464C4.96692 8.69464 4.52966 8.77388 4.13512 8.93016C3.73933 9.08685 3.3967 9.30205 3.11668 9.56997C2.8493 9.82595 2.61076 10.1367 2.40807 10.4936C2.21265 10.8377 2.05444 11.1965 1.93799 11.5603C1.82552 11.912 1.73145 12.2966 1.65839 12.7037C1.58601 13.1071 1.53685 13.4899 1.51254 13.8414C1.48865 14.1859 1.47656 14.5433 1.47656 14.9044C1.47656 15.844 1.77525 16.6046 2.36426 17.1656C2.94598 17.7192 3.71571 18 4.65175 18H13.3189C14.2549 18 15.0244 17.7193 15.6062 17.1656C16.1954 16.605 16.494 15.8442 16.494 14.9042C16.4939 14.5415 16.4817 14.1838 16.4577 13.841V13.841Z" fill="#EA0027"/>
</g>
<defs>
<clipPath id="clip0">
<rect width="18" height="18" fill="white"/>
</clipPath>
</defs>
</svg>
